<svg width="300" height="300" viewBox="0 0 300 300" fill="none" xmlns="http://www.w3.org/2000/svg">
<g clip-path="url(#clip0_130_2)">
<rect width="300" height="300" fill="black"/>
<rect x="-2" y="88" width="200" height="7" rx="3.5" fill="white"/>
<rect x="247" y="88" width="62" height="7" rx="3.5" fill="white"/>
<rect x="190.764" y="93.2952" width="55.431" height="7" rx="3.5" transform="rotate(-78.3813 190.764 93.2952)" fill="white"/>
<path d="M225.357 126.488C223.361 128.151 220.313 127.123 219.732 124.591L201.469 44.9482C201.029 43.029 202.268 41.1274 204.202 40.7546C206.042 40.3998 207.832 41.5663 208.251 43.3927L226.522 123.034C226.815 124.313 226.365 125.648 225.357 126.488Z" fill="white"/>
<path d="M221.2 125.226C220.756 124.447 220.672 123.514 220.971 122.669L240.485 67.5126C241.093 65.7954 242.966 64.884 244.692 65.4663C246.465 66.0644 247.398 68.0043 246.759 69.7628L226.772 124.75C225.876 127.216 222.503 127.504 221.2 125.226Z" fill="white"/>
<path d="M251.867 93.6334C250.348 95.1516 247.759 94.4933 247.15 92.4343L240.82 71.0267C240.235 69.0462 241.589 67.0196 243.642 66.8024C245.281 66.629 246.797 67.6891 247.197 69.2878L252.611 90.945C252.853 91.9097 252.57 92.9303 251.867 93.6334Z" fill="white"/>
<path d="M80.5625 259.598C79.5078 260.574 78.3164 261.316 76.9883 261.824C75.6732 262.319 74.2474 262.566 72.7109 262.566C69.013 262.566 66.1354 261.245 64.0781 258.602C62.0208 255.945 60.9922 252.228 60.9922 247.449C60.9922 242.684 62.0339 238.973 64.1172 236.316C66.2005 233.647 69.0977 232.312 72.8086 232.312C74.0326 232.312 75.2044 232.488 76.3242 232.84C77.444 233.178 78.5247 233.699 79.5664 234.402V238.445C78.5117 237.443 77.431 236.707 76.3242 236.238C75.2174 235.757 74.0456 235.516 72.8086 235.516C70.2435 235.516 68.3164 236.512 67.0273 238.504C65.7513 240.483 65.1133 243.465 65.1133 247.449C65.1133 251.499 65.7318 254.5 66.9688 256.453C68.2188 258.393 70.1328 259.363 72.7109 259.363C73.5833 259.363 74.3451 259.266 74.9961 259.07C75.6602 258.862 76.2591 258.543 76.793 258.113V250.281H72.5547V247.039H80.5625V259.598ZM105.66 244.637C104.892 244.038 104.111 243.602 103.316 243.328C102.522 243.055 101.65 242.918 100.699 242.918C98.4596 242.918 96.7474 243.621 95.5625 245.027C94.3776 246.434 93.7852 248.465 93.7852 251.121V262H90.1719V240.125H93.7852V244.402C94.3841 242.853 95.3021 241.668 96.5391 240.848C97.7891 240.014 99.2669 239.598 100.973 239.598C101.858 239.598 102.685 239.708 103.453 239.93C104.221 240.151 104.957 240.496 105.66 240.965V244.637ZM113.375 240.203H122.574V259.207H129.703V262H111.852V259.207H118.98V242.996H113.375V240.203ZM118.98 231.707H122.574V236.238H118.98V231.707ZM151.832 248.445V262H148.219V248.445C148.219 246.479 147.874 245.034 147.184 244.109C146.493 243.185 145.413 242.723 143.941 242.723C142.262 242.723 140.966 243.322 140.055 244.52C139.156 245.704 138.707 247.41 138.707 249.637V262H135.113V240.125H138.707V243.406C139.345 242.156 140.211 241.212 141.305 240.574C142.398 239.923 143.694 239.598 145.191 239.598C147.418 239.598 149.078 240.333 150.172 241.805C151.279 243.263 151.832 245.477 151.832 248.445ZM172.164 242.918V231.609H175.758V262H172.164V259.246C171.565 260.327 170.764 261.154 169.762 261.727C168.772 262.286 167.626 262.566 166.324 262.566C163.681 262.566 161.598 261.544 160.074 259.5C158.564 257.443 157.809 254.611 157.809 251.004C157.809 247.449 158.57 244.663 160.094 242.645C161.617 240.613 163.694 239.598 166.324 239.598C167.639 239.598 168.798 239.884 169.801 240.457C170.803 241.017 171.591 241.837 172.164 242.918ZM161.598 251.082C161.598 253.868 162.04 255.971 162.926 257.391C163.811 258.81 165.12 259.52 166.852 259.52C168.583 259.52 169.898 258.803 170.797 257.371C171.708 255.939 172.164 253.842 172.164 251.082C172.164 248.309 171.708 246.212 170.797 244.793C169.898 243.361 168.583 242.645 166.852 242.645C165.12 242.645 163.811 243.354 162.926 244.773C162.04 246.193 161.598 248.296 161.598 251.082ZM199.273 233.836V237.84C198.076 237.072 196.871 236.492 195.66 236.102C194.462 235.711 193.251 235.516 192.027 235.516C190.165 235.516 188.694 235.952 187.613 236.824C186.533 237.684 185.992 238.849 185.992 240.32C185.992 241.609 186.344 242.592 187.047 243.27C187.763 243.947 189.091 244.513 191.031 244.969L193.102 245.438C195.836 246.076 197.828 247.078 199.078 248.445C200.328 249.812 200.953 251.674 200.953 254.031C200.953 256.805 200.094 258.921 198.375 260.379C196.656 261.837 194.156 262.566 190.875 262.566C189.508 262.566 188.134 262.417 186.754 262.117C185.374 261.831 183.987 261.395 182.594 260.809V256.609C184.091 257.56 185.504 258.257 186.832 258.699C188.173 259.142 189.521 259.363 190.875 259.363C192.867 259.363 194.417 258.921 195.523 258.035C196.63 257.137 197.184 255.887 197.184 254.285C197.184 252.827 196.799 251.714 196.031 250.945C195.276 250.177 193.954 249.585 192.066 249.168L189.957 248.68C187.249 248.068 185.283 247.143 184.059 245.906C182.835 244.669 182.223 243.009 182.223 240.926C182.223 238.322 183.095 236.238 184.84 234.676C186.598 233.1 188.928 232.312 191.832 232.312C192.952 232.312 194.13 232.443 195.367 232.703C196.604 232.951 197.906 233.328 199.273 233.836ZM217.32 251.004H216.129C214.033 251.004 212.451 251.375 211.383 252.117C210.328 252.846 209.801 253.94 209.801 255.398C209.801 256.714 210.198 257.736 210.992 258.465C211.786 259.194 212.887 259.559 214.293 259.559C216.272 259.559 217.828 258.875 218.961 257.508C220.094 256.128 220.667 254.227 220.68 251.805V251.004H217.32ZM224.293 249.52V262H220.68V258.758C219.911 260.06 218.941 261.023 217.77 261.648C216.611 262.26 215.198 262.566 213.531 262.566C211.305 262.566 209.527 261.941 208.199 260.691C206.871 259.428 206.207 257.742 206.207 255.633C206.207 253.198 207.021 251.349 208.648 250.086C210.289 248.823 212.691 248.191 215.855 248.191H220.68V247.625C220.667 245.88 220.224 244.617 219.352 243.836C218.479 243.042 217.086 242.645 215.172 242.645C213.948 242.645 212.711 242.82 211.461 243.172C210.211 243.523 208.993 244.038 207.809 244.715V241.121C209.137 240.613 210.406 240.236 211.617 239.988C212.841 239.728 214.026 239.598 215.172 239.598C216.982 239.598 218.525 239.865 219.801 240.398C221.09 240.932 222.132 241.733 222.926 242.801C223.421 243.452 223.772 244.259 223.98 245.223C224.189 246.173 224.293 247.605 224.293 249.52ZM248.473 231.609V234.598H244.391C243.102 234.598 242.203 234.865 241.695 235.398C241.201 235.919 240.953 236.85 240.953 238.191V240.125H248.473V242.918H240.953V262H237.359V242.918H231.52V240.125H237.359V238.602C237.359 236.206 237.906 234.441 239 233.309C240.107 232.176 241.826 231.609 244.156 231.609H248.473ZM273.688 249.266V251.023H258.121V251.141C258.017 254.122 258.583 256.264 259.82 257.566C261.07 258.868 262.828 259.52 265.094 259.52C266.24 259.52 267.438 259.337 268.688 258.973C269.938 258.608 271.272 258.055 272.691 257.312V260.887C271.324 261.447 270.003 261.863 268.727 262.137C267.464 262.423 266.24 262.566 265.055 262.566C261.656 262.566 259 261.551 257.086 259.52C255.172 257.475 254.215 254.663 254.215 251.082C254.215 247.592 255.152 244.806 257.027 242.723C258.902 240.639 261.402 239.598 264.527 239.598C267.314 239.598 269.508 240.542 271.109 242.43C272.724 244.318 273.583 246.596 273.688 249.266ZM270.094 248.211C269.938 246.701 269.384 245.398 268.434 244.305C267.496 243.198 266.142 242.645 264.371 242.645C262.639 242.645 261.214 243.217 260.094 244.363C258.974 245.509 258.362 246.798 258.258 248.23L270.094 248.211Z" fill="white"/>
</g>
<defs>
<clipPath id="clip0_130_2">
<rect width="300" height="300" fill="white"/>
</clipPath>
</defs>
</svg>
